<?xml version="1.0" standalone="no"?>
<!DOCTYPE svg PUBLIC "-//W3C//DTD SVG 20010904//EN"
 "http://www.w3.org/TR/2001/REC-SVG-20010904/DTD/svg10.dtd">
<svg version="1.0" xmlns="http://www.w3.org/2000/svg"
 width="530.000000pt" height="530.000000pt" viewBox="0 0 530.000000 530.000000"
 preserveAspectRatio="xMidYMid meet">
<metadata>
Created by potrace 1.14, written by Peter Selinger 2001-2017
</metadata>
<g transform="translate(0.000000,530.000000) scale(0.100000,-0.100000)"
fill="#000000" stroke="none">
<path d="M1997 4712 l-137 -138 -196 0 -195 0 -370 -370 -369 -370 0 -194 0
-195 -137 -137 -136 -136 0 -522 0 -522 136 -136 137 -137 1 -196 1 -196 368
-368 369 -368 195 -1 196 -1 137 -137 138 -138 520 0 520 0 138 138 137 137
196 1 196 1 369 369 369 369 0 195 0 195 137 137 136 137 0 521 0 522 -136
136 -137 137 0 195 0 195 -369 369 -369 369 -196 1 -196 1 -137 138 -138 137
-520 0 -520 0 -138 -138z m1259 -29 c57 -57 100 -104 96 -105 -25 -5 -1392 -2
-1392 3 0 4 45 52 100 107 l101 99 496 -1 496 -1 103 -102z m-1956 -668 c-272
-272 -497 -495 -500 -495 -3 0 -6 65 -5 145 l0 145 350 350 350 350 150 0 150
0 -495 -495z m2669 -46 c298 -298 542 -545 542 -548 1 -3 2 -352 3 -775 l1
-768 -544 -544 -543 -544 -462 -1 c-253 0 -601 0 -771 0 l-311 -1 -544 546
-545 545 -1 768 0 768 43 46 c24 26 269 272 545 548 l500 501 773 0 773 0 541
-541z m196 191 l350 -350 0 -141 c0 -77 -2 -142 -5 -144 -4 -2 -229 219 -501
491 l-494 494 150 0 150 0 350 -350z m-3435 -1147 c1 -717 -1 -1057 -4 -1060
-2 -2 -48 41 -102 96 l-99 100 -5 73 c-3 40 -3 265 0 500 l5 428 95 99 c52 55
98 100 103 100 4 1 7 -151 7 -336z m3960 235 l100 -102 0 -496 0 -496 -100
-102 c-55 -56 -102 -102 -105 -102 -3 0 -5 315 -5 700 0 385 2 700 5 700 2 0
50 -46 105 -102z m-3047 -2456 l-147 -3 -351 351 -351 351 2 137 c0 75 2 141
3 147 0 5 224 -213 496 -485 l495 -495 -147 -3z m2872 843 l0 -145 -350 -350
-350 -350 -150 0 -150 0 495 495 c272 272 497 495 500 495 3 0 6 -65 5 -145z
m-1165 -917 c0 -4 -45 -52 -99 -106 l-99 -98 -497 0 -496 1 -100 99 c-55 54
-101 102 -104 105 -2 4 311 7 696 7 384 0 699 -3 699 -8z"/>
<path d="M1410 3713 l0 -78 122 0 123 0 1 -987 1 -987 -71 1 c-39 0 -95 0
-123 -1 l-53 -1 0 -75 0 -75 335 0 335 0 0 75 c0 86 17 77 -142 76 l-98 0 -1
42 c-3 286 1 1750 5 1754 3 3 10 -5 15 -18 5 -13 32 -73 60 -132 28 -60 51
-110 51 -112 0 -2 28 -62 61 -132 34 -70 84 -175 111 -233 28 -58 74 -154 103
-215 107 -225 169 -354 247 -520 45 -93 86 -176 91 -183 8 -10 94 153 342 650
181 365 342 690 357 723 60 135 67 151 77 165 8 10 11 -257 11 -887 l0 -901
-107 -1 c-60 0 -114 0 -120 0 -9 -1 -13 -23 -13 -76 l0 -75 385 0 385 0 0 75
0 75 -52 1 c-29 0 -85 1 -124 1 l-72 1 2 986 1 986 65 2 c36 1 91 2 123 2 l57
1 0 75 0 75 -270 0 -270 0 -256 -517 c-141 -285 -278 -561 -304 -613 -26 -52
-68 -137 -94 -189 l-48 -94 -16 29 c-10 16 -37 72 -62 124 -24 52 -77 164
-117 248 -40 85 -73 155 -73 157 0 2 -35 77 -78 167 -43 89 -134 281 -202 426
l-124 262 -288 0 -288 0 0 -77z"/>
</g>
</svg>
