<?xml version="1.0" standalone="no"?>
<!DOCTYPE svg PUBLIC "-//W3C//DTD SVG 20010904//EN"
 "http://www.w3.org/TR/2001/REC-SVG-20010904/DTD/svg10.dtd">
<svg version="1.0" xmlns="http://www.w3.org/2000/svg"
 width="430.000000pt" height="430.000000pt" viewBox="0 0 430.000000 430.000000"
 preserveAspectRatio="xMidYMid meet">
<metadata>
Created by potrace 1.14, written by Peter Selinger 2001-2017
</metadata>
<g transform="translate(0.000000,430.000000) scale(0.100000,-0.100000)"
fill="#000000" stroke="none">
<path d="M1784 4038 c-112 -315 -93 -280 -160 -301 -91 -28 -202 -74 -274
-112 -36 -19 -92 -48 -126 -65 l-61 -31 -179 86 c-98 47 -187 90 -196 95 -37
21 -63 9 -138 -62 -41 -39 -101 -96 -132 -126 -32 -29 -58 -60 -58 -66 0 -7
43 -102 95 -210 52 -108 95 -202 95 -210 0 -8 -20 -51 -44 -97 -47 -88 -111
-246 -120 -293 -3 -15 -12 -50 -21 -76 -15 -45 -20 -50 -68 -68 -29 -11 -129
-47 -224 -82 l-171 -62 1 -201 2 -201 32 -18 c17 -10 40 -21 50 -23 23 -5 275
-99 325 -121 35 -16 39 -23 69 -113 37 -114 86 -236 134 -332 19 -38 35 -75
35 -84 0 -8 -11 -37 -24 -63 -66 -127 -166 -347 -164 -359 4 -19 269 -283 284
-283 7 0 97 41 200 90 103 50 198 93 210 96 16 4 49 -9 111 -44 112 -65 199
-103 319 -143 90 -30 97 -34 110 -68 8 -20 19 -45 23 -56 5 -11 19 -47 31 -80
12 -33 28 -73 35 -90 6 -16 22 -58 35 -92 12 -35 29 -64 39 -67 32 -9 390 -1
399 9 5 6 42 100 81 210 40 110 78 208 85 217 6 9 52 28 101 42 48 14 91 28
94 31 3 4 -67 78 -156 167 l-161 160 -69 -7 c-180 -20 -346 -10 -493 31 -223
61 -402 165 -556 319 -379 381 -467 962 -217 1438 140 266 411 497 693 591
139 46 233 60 400 60 141 -1 200 -8 330 -39 142 -34 348 -152 482 -274 l62
-57 -47 -43 c-26 -24 -60 -71 -78 -107 -18 -36 -48 -83 -67 -105 l-34 -39 -57
45 c-73 57 -204 125 -241 125 -19 0 -33 -7 -40 -20 -17 -31 4 -58 66 -85 29
-13 54 -27 54 -31 0 -16 -147 4 -195 27 -53 25 -125 90 -125 113 0 20 115 75
172 82 64 9 124 -15 172 -66 38 -41 63 -49 84 -28 36 36 -21 119 -111 162 -44
21 -65 25 -132 23 -69 -2 -91 -7 -148 -35 -75 -37 -147 -101 -147 -130 0 -23
39 -83 83 -130 42 -44 120 -87 185 -102 50 -12 75 -11 222 5 l55 6 45 -45 c42
-44 43 -46 20 -47 -26 -1 -51 -4 -139 -14 -102 -11 -235 -96 -276 -176 -12
-22 -12 -29 1 -48 23 -32 48 -26 96 25 143 151 362 158 503 17 16 -16 16 -17
-1 -30 -87 -62 -177 -193 -191 -278 -3 -19 -8 -35 -12 -35 -5 0 -172 128 -188
144 -6 6 16 45 36 67 29 30 84 51 140 54 59 3 83 21 74 56 -8 28 -43 39 -108
34 -88 -6 -167 -61 -224 -153 -7 -11 -24 -10 -97 5 -231 50 -408 -10 -600
-201 -53 -54 -115 -130 -152 -186 -33 -52 -68 -104 -76 -116 -13 -18 -25 -21
-111 -22 -97 -1 -125 -10 -125 -40 0 -31 47 -107 100 -162 79 -79 179 -124
350 -156 70 -14 172 -81 288 -192 73 -70 173 -125 262 -146 92 -22 975 -22
1069 0 116 26 204 80 330 201 77 74 149 114 252 142 118 31 219 71 274 106
135 86 200 242 102 246 -12 0 -53 1 -92 2 -67 2 -70 3 -71 27 -2 63 -16 160
-25 165 -5 4 -9 14 -9 24 0 10 -17 44 -38 77 -97 150 -234 225 -411 226 -81 0
-85 1 -115 32 -113 116 -235 169 -374 161 -37 -2 -80 -7 -97 -11 -52 -11 -63
-7 -131 53 -66 58 -104 114 -104 154 0 25 50 75 94 93 17 7 65 21 106 31 41 9
85 24 97 31 20 12 23 12 33 -5 5 -11 10 -22 10 -25 0 -10 -77 -29 -125 -31
-63 -2 -75 -9 -75 -44 0 -20 7 -31 24 -39 35 -16 145 -9 185 11 20 10 38 14
43 9 5 -5 81 20 176 57 92 37 175 70 185 74 17 6 12 19 -43 125 l-62 119 47
99 c120 250 145 306 145 322 0 23 -260 282 -283 282 -20 0 -46 -12 -271 -120
l-149 -71 -121 60 c-67 33 -173 77 -236 97 -63 20 -125 40 -137 44 -18 8 -35
48 -94 230 l-71 220 -208 0 -208 0 -58 -162z m1246 -1143 c13 -14 22 -27 19
-29 -8 -7 -133 -25 -138 -20 -8 8 66 74 82 74 7 0 24 -11 37 -25z m211 -568
c132 -39 250 -173 266 -304 3 -26 7 -55 8 -63 1 -8 -4 -43 -10 -79 -14 -71
-11 -87 15 -101 24 -13 56 12 69 53 23 71 16 221 -15 301 -7 18 -3 19 63 14
150 -11 293 -122 334 -260 15 -50 22 -115 15 -143 -6 -23 -11 -24 -60 -23
l-54 2 -4 71 c-5 78 -23 119 -72 168 -43 44 -72 51 -97 26 -22 -22 -17 -45 21
-79 42 -39 61 -85 58 -138 l-3 -47 -212 0 c-117 0 -213 2 -213 6 0 3 15 35 33
70 29 57 32 73 32 149 0 69 -5 94 -24 133 -120 244 -455 238 -527 -10 -28 -98
11 -196 100 -248 52 -30 96 -36 155 -19 81 24 140 112 128 190 -8 47 -51 103
-94 121 -31 12 -38 12 -58 -1 -27 -18 -26 -55 2 -71 44 -26 65 -56 59 -83 -15
-62 -84 -89 -146 -57 -31 16 -47 39 -61 88 -13 46 21 116 73 150 23 15 50 27
60 28 10 1 28 1 41 2 71 2 164 -69 190 -147 17 -50 15 -121 -4 -169 -20 -52
-76 -115 -112 -126 -18 -5 -140 -9 -292 -8 l-259 2 -50 75 c-101 154 -236 253
-376 275 -25 4 -53 9 -63 11 -34 6 -131 -18 -187 -46 -98 -50 -217 -164 -276
-267 -27 -45 -38 -51 -97 -52 -31 0 -38 3 -33 15 17 43 120 178 191 250 275
278 600 245 890 -90 33 -37 66 -75 73 -82 14 -15 71 -20 73 -6 0 4 2 15 4 26
2 10 -10 36 -26 59 -34 46 -37 93 -14 171 41 135 151 238 290 271 62 15 124
13 196 -8z m-936 -377 c62 -30 143 -99 188 -160 49 -67 59 -64 -221 -65 -166
0 -251 3 -249 10 7 21 70 54 114 61 53 8 84 33 76 63 -7 26 -38 35 -93 27 -81
-11 -147 -54 -209 -136 -16 -21 -28 -25 -75 -26 -31 -1 -56 2 -56 6 0 12 68
100 108 138 69 68 162 115 242 125 44 5 113 -12 175 -43z m1865 -329 c0 -12
-97 -85 -146 -109 -23 -12 -88 -33 -145 -47 -165 -41 -233 -79 -351 -197 -65
-64 -153 -123 -219 -144 -48 -15 -108 -17 -529 -19 -420 -2 -483 0 -541 15
-92 24 -162 65 -243 143 -123 119 -222 175 -361 203 -102 20 -190 62 -252 119
l-48 44 1418 1 c807 0 1417 -4 1417 -9z"/>
</g>
</svg>
