<?xml version="1.0" encoding="utf-8"?>
<svg viewBox="0 0 320 360" height="360" width="320"><g><svg xmlns="http://www.w3.org/2000/svg" version="1.1" xmlns:xlink="http://www.w3.org/1999/xlink" xmlns:svgjs="http://svgjs.com/svgjs"></svg></g><g><svg viewBox="0 0 320 360" height="360" width="320"><g><path d="M320 141.95l-19.957-19.957v-28.224l-53.812-53.812h-28.223l-19.958-19.957h-76.1l-19.957 19.957h-28.224l-53.812 53.812v28.224l-19.957 19.957v76.104l19.957 19.958v28.223l53.816 53.808h28.224l19.957 19.957h76.104l19.958-19.957h28.223l53.812-53.812v-28.224l19.949-19.957zM244.374 44.437l51.189 51.189v21.887l-73.076-73.076zM295.563 123.849v112.306l-79.408 79.408h-112.306l-79.412-79.412v-112.302l79.412-79.412h112.306zM123.807 24.48h72.39l15.478 15.477h-103.346zM24.437 95.626l51.189-51.189h21.887l-73.076 73.076zM4.484 216.197v-72.394l15.477-15.478v103.342zM75.626 315.563l-51.189-51.189v-21.887l73.076 73.076zM196.197 335.52h-72.39l-15.478-15.477h103.342zM295.563 264.374l-51.189 51.189h-21.887l73.076-73.076zM315.52 216.197l-15.477 15.478v-103.346l15.477 15.478z" fill="#d6ffb7" data-fill-palette-color="tertiary"></path></g><g transform="matrix(1,0,0,1,69.52506596306067,90)"><svg viewBox="0 0 180.94986807387866 180" height="180" width="180.94986807387866"><g><svg viewBox="0 0 180.94986807387866 180" height="180" width="180.94986807387866"><g><svg viewBox="0 0 180.94986807387866 180" height="180" width="180.94986807387866"><g><svg viewBox="0 0 180.94986807387866 180" height="180" width="180.94986807387866"><g><svg viewBox="0 0 180.94986807387866 180" height="180" width="180.94986807387866"><g transform="matrix(1,0,0,1,0,0)"><svg width="180.94986807387866" viewBox="2.75 -34.9 38.099999999999994 34.9" height="180" data-palette-color="#4dc67c"><svg xmlns="http://www.w3.org/2000/svg" version="1.1" xmlns:xlink="http://www.w3.org/1999/xlink" xmlns:svgjs="http://svgjs.com/svgjs"></svg><g class="undefined-text-0" data-fill-palette-color="primary" id="text-0"><path d="M2.75 0v-2.3h3.75v-30.3h-3.75v-2.3h8.8l10.2 21.6h0.15l10.7-21.6h8.25v2.3h-3.75v30.3h3.75v2.3h-11.8v-2.3h3.75v-27.55h-0.2l-2.2 4.85-9.6 19.15-8.55-17.9-2.8-6.1h-0.2v27.55h3.75v2.3z" data-fill-palette-color="primary" fill="#4dc67c" opacity="1"></path></g></svg></g></svg></g></svg></g></svg></g></svg></g></svg></g></svg></g></svg>